PathFileType	4	(X/Y/Z)	/Users/itak/Documents/Research/Walk-IL/dataset/trc/00555_00009.trc
DataRate	CameraRate	NumFrames	NumMarkers	Units	OrigDataRate	OrigDataStartFrame	OrigNumFrames
100.000000	100.000000	4	56	mm	100.000000	139	372
Frame#	Time	RPSI			LPSI			L3			STRN			T10			C7			CLAV			RBAK			LBAK			LSHO			LUPA			LAEL			LAOL			LWTS			LWPS			LFRA			LIFD			LHPS			LHTS			RSHO			RUPA			RAEL			RAOL			RWTS			RWPS			RFRA			RIFD			RHTS			RHPS			RBHD			LFHD			RFHD			LBHD			LHIP			RHIP			RASI			LASI			LKNE			LTHI			LANK			LTIP			LTOE			LMT1			LMT5			LHEE			RKNE			RTHI			RANK			RTIP			RTOE			RMT1			RMT5			RHEE			*53			*54			*55			
		X1	Y1	Z1	X2	Y2	Z2	X3	Y3	Z3	X4	Y4	Z4	X5	Y5	Z5	X6	Y6	Z6	X7	Y7	Z7	X8	Y8	Z8	X9	Y9	Z9	X10	Y10	Z10	X11	Y11	Z11	X12	Y12	Z12	X13	Y13	Z13	X14	Y14	Z14	X15	Y15	Z15	X16	Y16	Z16	X17	Y17	Z17	X18	Y18	Z18	X19	Y19	Z19	X20	Y20	Z20	X21	Y21	Z21	X22	Y22	Z22	X23	Y23	Z23	X24	Y24	Z24	X25	Y25	Z25	X26	Y26	Z26	X27	Y27	Z27	X28	Y28	Z28	X29	Y29	Z29	X30	Y30	Z30	X31	Y31	Z31	X32	Y32	Z32	X33	Y33	Z33	X34	Y34	Z34	X35	Y35	Z35	X36	Y36	Z36	X37	Y37	Z37	X38	Y38	Z38	X39	Y39	Z39	X40	Y40	Z40	X41	Y41	Z41	X42	Y42	Z42	X43	Y43	Z43	X44	Y44	Z44	X45	Y45	Z45	X46	Y46	Z46	X47	Y47	Z47	X48	Y48	Z48	X49	Y49	Z49	X50	Y50	Z50	X51	Y51	Z51	X52	Y52	Z52	X53	Y53	Z53	X54	Y54	Z54	X55	Y55	Z55	X56	Y56	Z56	

140	1.39	-1047.124877929688	975.5426025390625	101.5139236450195	-1004.681396484375	998.7180786132812	-23.66178321838379	-1006.493896484375	1081.984252929688	47.80152893066406	-739.8922729492188	1225.122924804688	111.9283065795898	-988.9418334960938	1208.191162109375	53.00764846801758	-885.0780029296875	1465.570922851562	81.78692626953125	-734.5784301757812	1336.559204101562	110.824333190918	-997.5706787109375	1361.583374023438	148.0601806640625	-907.0889282226562	1417.592041015625	-16.32944869995117	-790.1414794921875	1425.154174804688	-70.62010955810547	-791.3233642578125	1303.990600585938	-156.1795196533203	-764.7671508789062	1084.990234375	-183.1656494140625	-865.0204467773438	1071.894775390625	-168.3286437988281	-669.768310546875	863.3348388671875	-85.19595336914062	-683.7116088867188	827.3115844726562	-162.8080596923828	-733.0171508789062	1001.778259277344	-175.0093536376953	-662.594970703125	710.547119140625	-59.169677734375	-667.2296752929688	771.2582397460938	-144.6208190917969	-632.5440063476562	791.9085083007812	-89.35636901855469	-869.6911010742188	1426.446655273438	245.0034942626953	-916.0625	1371.262573242188	306.3126525878906	-987.7794799804688	1090.182250976562	346.8912353515625	-1043.217895507812	1084.105346679688	315.8321838378906	-882.7451171875	857.0658569335938	308.2515258789062	-936.2982788085938	840.8499755859375	370.0134887695312	-986.2280883789062	1033.662719726562	352.4468383789062	-884.7123413085938	687.3216552734375	312.7862854003906	-859.8140258789062	766.1104125976562	329.5588073730469	-921.6654663085938	767.03857421875	372.1671142578125	-775.00341796875	1621.86669921875	171.4171447753906	-601.684326171875	1606.871337890625	57.50351715087891	-637.3935546875	1609.395141601562	196.9585266113281	-727.6641235351562	1615.923706054688	12.65178680419922	-853.593505859375	913.4337768554688	-121.8480224609375	-961.2786865234375	891.377197265625	246.6785888671875	-865.6454467773438	913.8822021484375	211.3402709960938	-786.7601318359375	925.5280151367188	-52.99429702758789	-893.6520385742188	464.5414733886719	-26.73421669006348	-861.1878051757812	626.9577026367188	-72.89276123046875	-1098.591918945312	30.40027809143066	-52.49653625488281	-1020.469299316406	237.3024597167969	-55.6064453125	-916.8614501953125	61.85956192016602	57.99740600585938	-994.2978515625	53.57014465332031	73.64886474609375	-978.6742553710938	42.6577033996582	-30.66342544555664	-1181.75830078125	24.70593643188477	-19.28432655334473	-698.4217529296875	529.53369140625	263.8794250488281	-870.0755004882812	769.1173706054688	260.1554565429688	-886.5643920898438	91.15042114257812	203.0655517578125	-711.32861328125	382.8864440917969	247.5290069580078	-667.60693359375	99.67739868164062	222.4044036865234	-715.1390380859375	91.05641174316406	165.3571014404297	-766.0764770507812	93.22271728515625	257.1205749511719	-925.0001220703125	80.80216979980469	135.8143005371094	nan	nan	nan	nan	nan	nan	nan	nan	nan	
141	1.4	-1040.2099609375	974.4649658203125	103.3145065307617	-998.7369384765625	998.3468017578125	-21.97457695007324	-999.8652954101562	1081.202514648438	49.37990951538086	-731.4342651367188	1221.966430664062	114.5356140136719	-980.5858154296875	1207.0810546875	54.76572036743164	-874.5877685546875	1463.526611328125	84.24232482910156	-725.2027587890625	1333.3212890625	113.8975601196289	-988.04248046875	1360.323486328125	150.1537780761719	-896.4590454101562	1415.811767578125	-14.16727161407471	-779.134765625	1422.472534179688	-67.67901611328125	-780.002685546875	1301.219848632812	-152.9566497802734	-752.7327270507812	1082.435180664062	-179.4987182617188	-853.3229370117188	1068.953735351562	-165.8573608398438	-657.0093994140625	862.4647827148438	-78.75563812255859	-669.7376708984375	825.7139282226562	-156.2738037109375	-720.3997802734375	999.5904541015625	-170.4669799804688	-649.0742797851562	710.2347412109375	-51.68682098388672	-652.8966064453125	770.0000610351562	-137.4341583251953	-618.935791015625	791.4916381835938	-82.04926300048828	-859.9627075195312	1424.246215820312	247.5372161865234	-907.0094604492188	1369.5419921875	308.7042236328125	-982.181640625	1089.39892578125	349.1878662109375	-1037.694946289062	1084.045288085938	318.0831604003906	-880.1502685546875	854.9638671875	310.6797180175781	-934.2154541015625	839.3638916015625	372.3136901855469	-981.5458374023438	1032.83251953125	354.8181762695312	-884.3594360351562	685.2578125	315.0633544921875	-858.5486450195312	763.7112426757812	331.9985961914062	-920.5081176757812	765.3743896484375	374.3082885742188	-763.9762573242188	1618.94970703125	174.50634765625	-590.7525024414062	1603.22119140625	60.43639373779297	-626.4232788085938	1605.86474609375	199.948486328125	-716.7353515625	1612.7470703125	15.69364166259766	-849.0775146484375	912.8939819335938	-121.9919586181641	-953.7009887695312	890.1237182617188	247.4901580810547	-858.22607421875	911.520263671875	211.7183990478516	-781.4678955078125	924.0680541992188	-53.37845611572266	-892.5101318359375	463.8700256347656	-28.77483749389648	-859.1536254882812	626.1759033203125	-74.56932067871094	-1098.722778320312	30.02678680419922	-52.78214263916016	-1020.237976074219	237.0231475830078	-56.62596130371094	-916.5023803710938	61.1528434753418	56.82864379882812	-993.8419189453125	53.22212982177734	72.71273803710938	-978.6358032226562	41.74514389038086	-31.54607963562012	-1181.7890625	24.7712287902832	-19.23849105834961	-686.9749145507812	532.47802734375	266.8951721191406	-862.2391967773438	769.3807373046875	261.5749206542969	-863.8828735351562	88.63275146484375	206.9481964111328	-696.0096435546875	385.0975036621094	250.8908843994141	-645.0886840820312	102.1659774780273	225.4168090820312	-692.5402221679688	92.71120452880859	168.5674438476562	-743.2703247070312	93.28730010986328	260.5065612792969	-902.273681640625	77.50947570800781	139.7810516357422	nan	nan	nan	nan	nan	nan	nan	nan	nan	
142	1.41	-1032.847900390625	973.2921142578125	105.4293365478516	-992.5494384765625	997.859375	-20.02315330505371	-992.920166015625	1080.3505859375	51.10663986206055	-722.6908569335938	1218.769409179688	117.1453857421875	-971.9252319335938	1205.825561523438	56.62549209594727	-863.9523315429688	1461.37255859375	86.73488616943359	-715.6215209960938	1330.034423828125	116.9580688476562	-978.2967529296875	1358.8876953125	152.2790832519531	-885.6286010742188	1413.94287109375	-11.9790678024292	-767.9152221679688	1419.783325195312	-64.69521331787109	-768.4200439453125	1298.4140625	-149.6771087646484	-740.4580688476562	1079.842407226562	-175.6943664550781	-841.3815307617188	1066.003051757812	-163.3240661621094	-644.2101440429688	861.5742797851562	-72.00765228271484	-655.6525268554688	824.1015014648438	-149.437744140625	-707.5803833007812	997.3941650390625	-165.7510223388672	-635.5353393554688	709.9519653320312	-43.85357666015625	-638.4584350585938	768.7750244140625	-129.9269409179688	-605.3038330078125	791.0928344726562	-74.39198303222656	-850.064697265625	1421.921630859375	250.0912017822266	-897.75146484375	1367.684692382812	311.1019287109375	-976.22802734375	1088.507568359375	351.5364379882812	-1031.813110351562	1083.914916992188	320.4081420898438	-877.4806518554688	852.6793823242188	313.1702270507812	-931.9513549804688	837.7906494140625	374.7046203613281	-976.5621337890625	1031.937866210938	357.3063659667969	-884.173095703125	683.0477294921875	317.4024658203125	-857.2940063476562	761.1265869140625	334.4607238769531	-919.3233642578125	763.6192626953125	376.5851745605469	-752.8095092773438	1615.982055664062	177.6978759765625	-579.65966796875	1599.512084960938	63.51671981811523	-615.296875	1602.258422851562	203.0989685058594	-705.6090698242188	1609.564208984375	18.86515045166016	-844.4740600585938	912.2777709960938	-122.0865859985352	-945.4856567382812	888.8229370117188	248.4634094238281	-850.2411499023438	909.0790405273438	212.1085205078125	-776.0004272460938	922.4877319335938	-53.87891006469727	-891.2919311523438	463.1734008789062	-30.98545455932617	-857.071044921875	625.355224609375	-76.33090209960938	-1098.832153320312	29.64985847473145	-53.08601379394531	-1019.994018554688	236.7575073242188	-57.70216369628906	-916.0650634765625	60.37332153320312	55.53971099853516	-993.2720336914062	52.84157562255859	71.67526245117188	-978.567626953125	40.73351669311523	-32.51901626586914	-1181.808349609375	24.85813903808594	-19.18266487121582	-675.5387573242188	535.1329345703125	270.0599365234375	-853.8803100585938	769.5617065429688	263.2663879394531	-841.0308837890625	86.03219604492188	211.0368804931641	-680.752685546875	387.1072692871094	254.454833984375	-622.493896484375	104.5379104614258	228.7005462646484	-669.9077758789062	94.22913360595703	172.0465393066406	-720.3718872070312	93.25566101074219	264.1355285644531	-879.3162841796875	74.13743591308594	143.8640899658203	nan	nan	nan	nan	nan	nan	nan	nan	nan	
143	1.42	-1025.028564453125	972.0128173828125	107.8693542480469	-986.1101684570312	997.2427368164062	-17.78987503051758	-985.5985717773438	1079.436889648438	52.98715591430664	-713.65625	1215.543579101562	119.7371215820312	-962.9120483398438	1204.41357421875	58.60390853881836	-853.1707763671875	1459.1142578125	89.25565338134766	-705.8121337890625	1326.717163085938	119.9875717163086	-968.332763671875	1357.276245117188	154.4273223876953	-874.5957641601562	1411.996826171875	-9.773969650268555	-756.4722290039062	1417.096923828125	-61.67327117919922	-756.5537109375	1295.590942382812	-146.3594970703125	-727.9489135742188	1077.225830078125	-171.7700500488281	-829.1856689453125	1063.055908203125	-160.75341796875	-631.4071044921875	860.6880493164062	-64.99210357666016	-641.4793090820312	822.4877319335938	-142.3325347900391	-694.5740356445312	995.2068481445312	-160.8813781738281	-622.0297241210938	709.69287109375	-35.6943359375	-623.9522705078125	767.5875854492188	-122.1391983032227	-591.6929321289062	790.7077026367188	-66.40815734863281	-840.001708984375	1419.479370117188	252.6543884277344	-888.296142578125	1365.705322265625	313.4944763183594	-969.926513671875	1087.515380859375	353.9259948730469	-1025.5625	1083.7197265625	322.7815856933594	-874.7003173828125	850.2449951171875	315.7239990234375	-929.465576171875	836.156982421875	377.1867370605469	-971.2630004882812	1030.984008789062	359.8816833496094	-884.1026611328125	680.7289428710938	319.8257141113281	-856.0022583007812	758.3887939453125	336.9405212402344	-918.0567016601562	761.803955078125	379.0066528320312	-741.5084838867188	1612.97216796875	180.9841766357422	-568.4141845703125	1595.761596679688	66.74167633056641	-604.0204467773438	1598.587646484375	206.3991851806641	-694.3001098632812	1606.397216796875	22.15817832946777	-839.7756958007812	911.5779418945312	-122.1059417724609	-936.6213989257812	887.4612426757812	249.5985565185547	-841.6702270507812	906.5595703125	212.5159606933594	-770.3525390625	920.7836303710938	-54.48494720458984	-890.0198974609375	462.4438781738281	-33.33471298217773	-854.93701171875	624.5078735351562	-78.13639068603516	-1098.90771484375	29.26784515380859	-53.39623641967773	-1019.732055664062	236.5088043212891	-58.80810546875	-915.5608520507812	59.47234344482422	54.20212173461914	-992.6243896484375	52.40119552612305	70.60824584960938	-978.4421997070312	39.62130355834961	-33.53350448608398	-1181.805541992188	24.97357559204102	-19.11567306518555	-664.1044921875	537.4605102539062	273.3724975585938	-845.0230712890625	769.6641235351562	265.18310546875	-818.1520385742188	83.39271545410156	215.2992248535156	-665.593994140625	388.8986206054688	258.2180786132812	-599.9615478515625	106.6845779418945	232.3253936767578	-647.3431396484375	95.53239440917969	175.832275390625	-697.5421142578125	93.08811187744141	268.0312805175781	-856.232421875	70.76255798339844	147.9754028320312	nan	nan	nan	nan	nan	nan	nan	nan	nan	
